<svg width="205" height="140" viewBox="0 0 205 140" fill="none" xmlns="http://www.w3.org/2000/svg">
<g clip-path="url(#clip0_2_388)">
<path d="M16 -2C6.05888 -2 -2 6.05887 -2 16V124C-2 133.941 6.05887 142 16 142H189C198.941 142 207 133.941 207 124V16C207 6.05887 198.941 -2 189 -2H16Z" stroke="#128079" stroke-width="4"/>
<rect x="-4" width="213" height="140" rx="6" fill="#128079" fill-opacity="0.16"/>
<path d="M84 67.4286C84 66.0084 85.1513 64.8571 86.5714 64.8571H117.429C118.849 64.8571 120 66.0084 120 67.4286V85.4286C120 86.8487 118.849 88 117.429 88H86.5714C85.1513 88 84 86.8487 84 85.4286V67.4286Z" fill="#128079"/>
<path d="M84 54.5714C84 53.1513 85.1513 52 86.5714 52H117.429C118.849 52 120 53.1513 120 54.5714V57.1429C120 58.563 118.849 59.7143 117.429 59.7143H86.5714C85.1513 59.7143 84 58.563 84 57.1429V54.5714Z" fill="#128079"/>
</g>
<defs>
<clipPath id="clip0_2_388">
<rect width="205" height="140" rx="16" fill="white"/>
</clipPath>
</defs>
</svg>
