<svg width="205" height="140" viewBox="0 0 205 140" fill="none" xmlns="http://www.w3.org/2000/svg">
<path d="M0 16C0 7.16344 7.16344 0 16 0H189C197.837 0 205 7.16344 205 16V124C205 132.837 197.837 140 189 140H16C7.16344 140 0 132.837 0 124V16Z" fill="#128079" fill-opacity="0.16"/>
<path d="M84 67.4286C84 66.0084 85.1513 64.8571 86.5714 64.8571H117.429C118.849 64.8571 120 66.0084 120 67.4286V85.4286C120 86.8487 118.849 88 117.429 88H86.5714C85.1513 88 84 86.8487 84 85.4286V67.4286Z" fill="#128079"/>
<path d="M84 54.5714C84 53.1513 85.1513 52 86.5714 52H117.429C118.849 52 120 53.1513 120 54.5714V57.1429C120 58.563 118.849 59.7143 117.429 59.7143H86.5714C85.1513 59.7143 84 58.563 84 57.1429V54.5714Z" fill="#128079"/>
<path d="M15 94C15 90.6863 17.6863 88 21 88H63C66.3137 88 69 90.6863 69 94V119C69 122.314 66.3137 125 63 125H21C17.6863 125 15 122.314 15 119V94Z" fill="white"/>
<path fill-rule="evenodd" clip-rule="evenodd" d="M41.5 107.429C38.5143 107.429 36.0714 104.857 36.0714 101.714C36.0714 98.5715 38.5143 96 41.5 96C44.4857 96 46.9286 98.5715 46.9286 101.714C46.9286 104.857 44.4857 107.429 41.5 107.429ZM36.0714 108C37.4286 109.428 39.3286 110.286 41.5 110.286C43.6714 110.286 45.5714 109.428 46.9286 108C49.3714 108.857 51 110.714 51 113.143V114C51 115.104 50.1046 116 49 116H34C32.8954 116 32 115.104 32 114V113.143C32 110.714 33.6286 108.857 36.0714 108Z" fill="#128079"/>
</svg>
