<svg width="205" height="140" viewBox="0 0 205 140" fill="none" xmlns="http://www.w3.org/2000/svg">
<path d="M0 16C0 7.16344 7.16344 0 16 0H189C197.837 0 205 7.16344 205 16V124C205 132.837 197.837 140 189 140H16C7.16344 140 0 132.837 0 124V16Z" fill="#128079" fill-opacity="0.16"/>
<path d="M135 94C135 90.6863 137.686 88 141 88H183C186.314 88 189 90.6863 189 94V119C189 122.314 186.314 125 183 125H141C137.686 125 135 122.314 135 119V94Z" fill="white"/>
<path fill-rule="evenodd" clip-rule="evenodd" d="M161.5 107.429C158.514 107.429 156.071 104.857 156.071 101.714C156.071 98.5715 158.514 96 161.5 96C164.486 96 166.929 98.5715 166.929 101.714C166.929 104.857 164.486 107.429 161.5 107.429ZM156.071 108C157.429 109.428 159.329 110.286 161.5 110.286C163.671 110.286 165.571 109.428 166.929 108C169.371 108.857 171 110.714 171 113.143V114C171 115.104 170.105 116 169 116H154C152.895 116 152 115.104 152 114V113.143C152 110.714 153.629 108.857 156.071 108Z" fill="#128079"/>
<path d="M84 67.4286C84 66.0084 85.1513 64.8571 86.5714 64.8571H117.429C118.849 64.8571 120 66.0084 120 67.4286V85.4286C120 86.8487 118.849 88 117.429 88H86.5714C85.1513 88 84 86.8487 84 85.4286V67.4286Z" fill="#128079"/>
<path d="M84 54.5714C84 53.1513 85.1513 52 86.5714 52H117.429C118.849 52 120 53.1513 120 54.5714V57.1429C120 58.563 118.849 59.7143 117.429 59.7143H86.5714C85.1513 59.7143 84 58.563 84 57.1429V54.5714Z" fill="#128079"/>
</svg>
