<svg width="205" height="140" viewBox="0 0 205 140" fill="none" xmlns="http://www.w3.org/2000/svg">
<path d="M0 16C0 7.16344 7.16344 0 16 0H189C197.837 0 205 7.16344 205 16V124C205 132.837 197.837 140 189 140H16C7.16344 140 0 132.837 0 124V16Z" fill="#E3E8EB"/>
<rect x="36" y="36" width="133" height="68" rx="6" fill="#91979A" fill-opacity="0.24"/>
<path fill-rule="evenodd" clip-rule="evenodd" d="M102 72.1429C96.3429 72.1429 91.7143 67.3857 91.7143 61.5715C91.7143 55.7572 96.3429 51.0001 102 51.0001C107.657 51.0001 112.286 55.7572 112.286 61.5715C112.286 67.3857 107.657 72.1429 102 72.1429ZM91.7143 73.1998C94.2857 75.8426 97.8857 77.4283 102 77.4283C106.114 77.4283 109.714 75.8426 112.286 73.1998C116.914 74.7855 120 78.2212 120 82.714V85.9997C120 87.1043 119.105 87.9997 118 87.9997H86C84.8954 87.9997 84 87.1043 84 85.9997V82.714C84 78.2212 87.0857 74.7855 91.7143 73.1998Z" fill="#91979A"/>
</svg>
