<svg width="205" height="140" viewBox="0 0 205 140" fill="none" xmlns="http://www.w3.org/2000/svg">
<path d="M0 16C0 7.16344 7.16344 0 16 0H189C197.837 0 205 7.16344 205 16V124C205 132.837 197.837 140 189 140H16C7.16344 140 0 132.837 0 124V16Z" fill="#E3E8EB"/>
<path d="M132 4H189C195.627 4 201 9.37258 201 16V124C201 130.627 195.627 136 189 136H132V4Z" fill="#91979A" fill-opacity="0.24"/>
<path fill-rule="evenodd" clip-rule="evenodd" d="M167.5 72.5714C162 72.5714 157.5 67.9429 157.5 62.2857C157.5 56.6286 162 52 167.5 52C173 52 177.5 56.6286 177.5 62.2857C177.5 67.9429 173 72.5714 167.5 72.5714ZM157.5 73.5997C160 76.1712 163.5 77.714 167.5 77.714C171.5 77.714 175 76.1712 177.5 73.5997C182 75.1426 185 78.4854 185 82.8569V85.9997C185 87.1043 184.105 87.9997 183 87.9997H152C150.895 87.9997 150 87.1043 150 85.9997V82.8569C150 78.4854 153 75.1426 157.5 73.5997Z" fill="#91979A"/>
<path d="M47 67.4286C47 66.0084 48.1513 64.8571 49.5714 64.8571H80.4286C81.8487 64.8571 83 66.0084 83 67.4286V85.4286C83 86.8487 81.8487 88 80.4286 88H49.5714C48.1513 88 47 86.8487 47 85.4286V67.4286Z" fill="#91979A"/>
<path d="M47 54.5714C47 53.1513 48.1513 52 49.5714 52H80.4286C81.8487 52 83 53.1513 83 54.5714V57.1429C83 58.563 81.8487 59.7143 80.4286 59.7143H49.5714C48.1513 59.7143 47 58.563 47 57.1429V54.5714Z" fill="#91979A"/>
</svg>
