<svg width="205" height="140" viewBox="0 0 205 140" fill="none" xmlns="http://www.w3.org/2000/svg">
<rect x="36" y="36" width="133" height="68" rx="6" fill="#128079" fill-opacity="0.16"/>
<path fill-rule="evenodd" clip-rule="evenodd" d="M102 72.1428C96.3429 72.1428 91.7143 67.3857 91.7143 61.5714C91.7143 55.7571 96.3429 51 102 51C107.657 51 112.286 55.7571 112.286 61.5714C112.286 67.3857 107.657 72.1428 102 72.1428ZM91.7143 73.1997C94.2857 75.8426 97.8857 77.4283 102 77.4283C106.114 77.4283 109.714 75.8426 112.286 73.1997C116.914 74.7854 120 78.2211 120 82.714V85.9997C120 87.1042 119.105 87.9997 118 87.9997H86C84.8954 87.9997 84 87.1042 84 85.9997V82.714C84 78.2211 87.0857 74.7854 91.7143 73.1997Z" fill="#128079"/>
</svg>
